<svg width="152.639465" height="49.999756" viewBox="0 0 152.639 49.9998" fill="none" xmlns="http://www.w3.org/2000/svg" xmlns:xlink="http://www.w3.org/1999/xlink">
	<desc>
			Created with Pixso.
	</desc>
	<defs/>
	<path d="M37.54 17.65L19.71 17.65L19.71 22.93L32.34 22.93C31.72 30.36 25.53 33.49 19.71 33.49C12.25 33.49 5.77 27.64 5.77 19.43C5.77 11.42 11.96 5.28 19.71 5.28C25.7 5.28 29.24 9.11 29.24 9.11L32.96 5.28C32.96 5.28 28.21 0 19.55 0C8.53 0 0 9.32 0 19.34C0 29.2 8.04 38.81 19.84 38.81C30.23 38.81 37.82 31.68 37.82 21.16C37.82 18.93 37.54 17.65 37.54 17.65Z" fill="#4285F4" fill-opacity="1.000000" fill-rule="nonzero"/>
	<path d="M52.1 13.82C44.8 13.82 39.56 19.55 39.56 26.19C39.56 32.96 44.63 38.77 52.18 38.77C59.03 38.77 64.6 33.53 64.6 26.36C64.64 18.06 58.12 13.82 52.1 13.82ZM52.18 18.72C55.77 18.72 59.19 21.61 59.19 26.32C59.19 30.89 55.81 33.91 52.18 33.91C48.18 33.91 45.04 30.73 45.04 26.32C45.04 21.94 48.14 18.72 52.18 18.72Z" fill="#EA4335" fill-opacity="1.000000" fill-rule="nonzero"/>
	<path d="M79.41 13.82C72.11 13.82 66.87 19.55 66.87 26.19C66.87 32.96 71.94 38.77 79.49 38.77C86.34 38.77 91.91 33.53 91.91 26.36C91.91 18.06 85.39 13.82 79.41 13.82ZM79.49 18.72C83.08 18.72 86.5 21.61 86.5 26.32C86.5 30.89 83.12 33.91 79.49 33.91C75.49 33.91 72.35 30.73 72.35 26.32C72.31 21.94 75.45 18.72 79.49 18.72Z" fill="#FBBC05" fill-opacity="1.000000" fill-rule="nonzero"/>
	<path d="M106.14 13.82C99.42 13.82 94.18 19.67 94.18 26.27C94.18 33.78 100.28 38.77 106.06 38.77C109.61 38.77 111.51 37.37 112.91 35.72L112.91 38.2C112.91 42.49 110.31 45.09 106.35 45.09C102.55 45.09 100.61 42.24 99.95 40.63L95.17 42.65C96.86 46.24 100.28 49.99 106.39 49.99C113.07 49.99 118.15 45.79 118.15 37L118.15 14.56L112.91 14.56L112.91 16.66C111.3 14.97 109.07 13.82 106.14 13.82ZM106.64 18.72C109.94 18.72 113.32 21.53 113.32 26.32C113.32 31.18 109.94 33.86 106.6 33.86C103.01 33.86 99.71 30.98 99.71 26.36C99.67 21.57 103.13 18.72 106.64 18.72Z" fill="#4285F4" fill-opacity="1.000000" fill-rule="nonzero"/>
	<path d="M141.37 13.82C135.06 13.82 129.74 18.85 129.74 26.27C129.74 34.15 135.68 38.81 141.99 38.81C147.27 38.81 150.53 35.93 152.43 33.33L148.1 30.44C146.98 32.17 145.09 33.86 141.99 33.86C138.48 33.86 136.88 31.93 135.89 30.07L152.63 23.14L151.77 21.12C150.16 17.12 146.36 13.82 141.37 13.82ZM141.62 18.6C143.89 18.6 145.54 19.8 146.24 21.28L135.06 25.94C134.57 22.31 137.99 18.6 141.62 18.6Z" fill="#EA4335" fill-opacity="1.000000" fill-rule="nonzero"/>
	<path d="M121.78 1.27L127.26 1.27L127.26 38.07L121.78 38.07L121.78 1.27Z" fill="#34A853" fill-opacity="1.000000" fill-rule="evenodd"/>
</svg>
