<svg width="218.851822" height="53.000397" viewBox="0 0 218.852 53.0004" fill="none" xmlns="http://www.w3.org/2000/svg" xmlns:xlink="http://www.w3.org/1999/xlink">
	<desc>
			Created with Pixso.
	</desc>
	<defs>
		<filter id="filter_5_18_dd" x="0.000000" y="0.000000" width="218.851822" height="53.000397" filterUnits="userSpaceOnUse" color-interpolation-filters="sRGB">
			<feFlood flood-opacity="0" result="BackgroundImageFix"/>
			<feColorMatrix in="SourceAlpha" type="matrix" values="0 0 0 0 0 0 0 0 0 0 0 0 0 0 0 0 0 0 127 0" result="hardAlpha"/>
			<feOffset dx="0" dy="4"/>
			<feGaussianBlur stdDeviation="1.33333"/>
			<feComposite in2="hardAlpha" operator="out" k2="-1" k3="1"/>
			<feColorMatrix type="matrix" values="0 0 0 0 0 0 0 0 0 0 0 0 0 0 0 0 0 0 0.25 0"/>
			<feBlend mode="normal" in2="BackgroundImageFix" result="effect_dropShadow_1"/>
			<feBlend mode="normal" in="SourceGraphic" in2="effect_dropShadow_1" result="shape"/>
		</filter>
	</defs>
	<g filter="url(#filter_5_18_dd)">
		<path d="M214.85 20.3L214.85 16.58L210.24 16.58L210.24 10.81L210.08 10.87L205.75 12.2L205.64 12.2L205.64 16.58L198.81 16.58L198.81 14.14C198.81 13.03 199.09 12.15 199.59 11.59C200.09 11.04 200.81 10.7 201.7 10.7C202.36 10.7 203.03 10.87 203.69 11.15L203.86 11.2L203.86 7.32L203.81 7.26C203.19 7.04 202.31 6.93 201.25 6.93C199.92 6.93 198.7 7.21 197.65 7.82C196.59 8.37 195.76 9.2 195.15 10.26C194.54 11.31 194.26 12.53 194.26 13.87L194.26 16.53L191.04 16.53L191.04 20.25L194.26 20.25L194.26 35.89L198.87 35.89L198.87 20.25L205.69 20.25L205.69 30.23C205.69 34.34 207.63 36.39 211.41 36.39C212.02 36.39 212.68 36.34 213.35 36.17C214.02 36.01 214.51 35.89 214.79 35.73L214.85 35.67L214.85 31.95L214.68 32.07C214.4 32.23 214.13 32.34 213.74 32.45C213.35 32.56 213.07 32.62 212.85 32.62C211.96 32.62 211.3 32.4 210.91 31.9C210.52 31.4 210.3 30.57 210.3 29.4L210.3 20.3L214.85 20.3ZM180.78 32.62C179.11 32.62 177.78 32.07 176.84 30.96C175.9 29.85 175.45 28.29 175.45 26.29C175.45 24.24 175.95 22.63 176.84 21.52C177.78 20.41 179.06 19.86 180.72 19.86C182.33 19.86 183.61 20.41 184.5 21.47C185.38 22.52 185.88 24.13 185.88 26.18C185.88 28.29 185.44 29.9 184.61 30.96C183.72 32.12 182.44 32.62 180.78 32.62ZM180.94 16.14C177.78 16.14 175.23 17.08 173.4 18.92C171.57 20.75 170.68 23.3 170.68 26.52C170.68 29.57 171.57 31.95 173.34 33.73C175.12 35.51 177.5 36.39 180.45 36.39C183.55 36.39 185.99 35.45 187.82 33.56C189.66 31.68 190.54 29.18 190.54 26.07C190.54 23.02 189.71 20.52 187.99 18.8C186.33 17.03 184 16.14 180.94 16.14ZM163.3 16.14C161.14 16.14 159.36 16.7 157.97 17.81C156.59 18.92 155.92 20.36 155.92 22.08C155.92 22.97 156.09 23.8 156.36 24.46C156.64 25.13 157.14 25.74 157.75 26.24C158.36 26.74 159.3 27.29 160.53 27.79C161.58 28.24 162.36 28.57 162.86 28.9C163.35 29.18 163.69 29.46 163.85 29.74C164.02 30.01 164.13 30.4 164.13 30.84C164.13 32.12 163.13 32.79 161.14 32.79C160.41 32.79 159.53 32.62 158.64 32.34C157.7 32.01 156.86 31.62 156.09 31.01L155.92 30.9L155.92 35.34L155.98 35.39C156.64 35.67 157.47 35.95 158.42 36.17C159.36 36.39 160.25 36.45 161.02 36.45C163.35 36.45 165.3 35.89 166.63 34.78C168.02 33.67 168.74 32.18 168.74 30.4C168.74 29.12 168.35 27.96 167.63 27.07C166.91 26.18 165.57 25.35 163.8 24.63C162.36 24.08 161.47 23.58 161.08 23.19C160.69 22.85 160.53 22.36 160.53 21.69C160.53 21.13 160.75 20.69 161.25 20.3C161.75 19.91 162.36 19.75 163.19 19.75C163.97 19.75 164.74 19.86 165.52 20.08C166.3 20.3 166.96 20.64 167.57 21.02L167.74 21.13L167.74 16.92L167.68 16.86C167.13 16.64 166.46 16.42 165.63 16.31C164.74 16.25 163.97 16.14 163.3 16.14ZM143.88 32.62C142.21 32.62 140.88 32.07 139.94 30.96C139 29.85 138.55 28.29 138.55 26.29C138.55 24.24 139.05 22.63 139.94 21.52C140.88 20.41 142.16 19.86 143.82 19.86C145.43 19.86 146.71 20.41 147.6 21.47C148.48 22.52 148.98 24.13 148.98 26.18C148.98 28.29 148.54 29.9 147.71 30.96C146.88 32.12 145.6 32.62 143.88 32.62ZM144.1 16.14C140.94 16.14 138.39 17.08 136.55 18.92C134.72 20.75 133.84 23.3 133.84 26.52C133.84 29.57 134.72 31.95 136.5 33.73C138.27 35.51 140.66 36.39 143.6 36.39C146.71 36.39 149.15 35.45 150.98 33.56C152.81 31.68 153.7 29.18 153.7 26.07C153.7 23.02 152.87 20.52 151.15 18.8C149.48 17.03 147.1 16.14 144.1 16.14ZM126.84 19.97L126.84 16.64L122.29 16.64L122.29 35.95L126.84 35.95L126.84 26.07C126.84 24.41 127.23 23.02 127.95 21.97C128.67 20.91 129.67 20.41 130.89 20.41C131.28 20.41 131.78 20.47 132.28 20.64C132.78 20.75 133.11 20.91 133.34 21.08L133.5 21.19L133.5 16.58L133.45 16.53C133 16.36 132.45 16.25 131.67 16.25C130.51 16.25 129.51 16.64 128.62 17.36C127.9 18.03 127.34 18.86 126.84 19.97ZM114.19 16.14C112.08 16.14 110.25 16.58 108.64 17.47C107.04 18.36 105.81 19.64 104.98 21.25C104.15 22.85 103.71 24.74 103.71 26.79C103.71 28.63 104.09 30.29 104.93 31.79C105.76 33.29 106.87 34.45 108.31 35.23C109.75 36.01 111.42 36.45 113.31 36.45C115.47 36.45 117.3 36.01 118.8 35.17L118.85 35.12L118.85 30.96L118.69 31.12C118.02 31.62 117.24 32.01 116.47 32.29C115.69 32.56 114.91 32.73 114.3 32.73C112.53 32.73 111.09 32.18 110.03 31.07C108.98 29.96 108.48 28.4 108.48 26.46C108.48 24.52 109.03 22.91 110.14 21.74C111.25 20.58 112.64 19.97 114.41 19.97C115.91 19.97 117.36 20.47 118.74 21.47L118.91 21.58L118.91 17.19L118.85 17.14C118.35 16.86 117.63 16.58 116.75 16.42C115.86 16.25 114.97 16.14 114.19 16.14ZM100.6 16.64L96.05 16.64L96.05 35.95L100.6 35.95L100.6 16.64ZM98.38 8.37C97.66 8.37 96.99 8.65 96.44 9.15C95.88 9.65 95.6 10.31 95.6 11.04C95.6 11.76 95.88 12.42 96.38 12.92C96.94 13.42 97.55 13.64 98.32 13.64C99.1 13.64 99.77 13.42 100.27 12.92C100.82 12.42 101.1 11.81 101.1 11.04C101.1 10.31 100.82 9.7 100.32 9.15C99.82 8.65 99.16 8.37 98.38 8.37ZM87.06 15.2L87.06 35.95L91.72 35.95L91.72 8.98L85.28 8.98L77.13 29.01L69.19 8.98L62.53 8.98L62.53 35.95L66.92 35.95L66.92 15.2L67.08 15.2L75.46 35.95L78.74 35.95L86.95 15.2L87.06 15.2Z" fill="#706D6E" fill-opacity="1.000000" fill-rule="nonzero"/>
		<path d="M25.36 21.36L4 21.36L4 0L25.36 0L25.36 21.36Z" fill="#F1511B" fill-opacity="1.000000" fill-rule="nonzero"/>
		<path d="M48.99 21.36L27.63 21.36L27.63 0L48.99 0L48.99 21.36Z" fill="#80CC28" fill-opacity="1.000000" fill-rule="nonzero"/>
		<path d="M25.36 45L4 45L4 23.58L25.36 23.58L25.36 45Z" fill="#00ADEF" fill-opacity="1.000000" fill-rule="nonzero"/>
		<path d="M48.99 45L27.63 45L27.63 23.58L48.99 23.58L48.99 45Z" fill="#FBBC09" fill-opacity="1.000000" fill-rule="nonzero"/>
	</g>
</svg>
